<svg width="180" height="100" viewBox="0 0 180 100" fill="none" xmlns="http://www.w3.org/2000/svg">
<path d="M4 0H0V100H4V0Z" fill="black"/>
<path d="M8 0H6V100H8V0Z" fill="black"/>
<path d="M14 0H12V100H14V0Z" fill="black"/>
<path d="M24 0H22V100H24V0Z" fill="black"/>
<path d="M34 0H26V100H34V0Z" fill="black"/>
<path d="M40 0H38V100H40V0Z" fill="black"/>
<path d="M46 0H44V100H46V0Z" fill="black"/>
<path d="M58 0H50V100H58V0Z" fill="black"/>
<path d="M62 0H60V100H62V0Z" fill="black"/>
<path d="M68 0H66V100H68V0Z" fill="black"/>
<path d="M74 0H72V100H74V0Z" fill="black"/>
<path d="M80 0H76V100H80V0Z" fill="black"/>
<path d="M90 0H88V100H90V0Z" fill="black"/>
<path d="M96 0H94V100H96V0Z" fill="black"/>
<path d="M108 0H100V100H108V0Z" fill="black"/>
<path d="M112 0H110V100H112V0Z" fill="black"/>
<path d="M124 0H116V100H124V0Z" fill="black"/>
<path d="M128 0H126V100H128V0Z" fill="black"/>
<path d="M140 0H132V100H140V0Z" fill="black"/>
<path d="M148 0H146V100H148V0Z" fill="black"/>
<path d="M152 0H150V100H152V0Z" fill="black"/>
<path d="M158 0H154V100H158V0Z" fill="black"/>
<path d="M170 0H164V100H170V0Z" fill="black"/>
<path d="M174 0H172V100H174V0Z" fill="black"/>
<path d="M180 0H176V100H180V0Z" fill="black"/>
</svg>
